<svg width="12" height="12" viewBox="0 0 12 12" fill="none" xmlns="http://www.w3.org/2000/svg">
<g id="ic-teammatch">
<path id="&#38;" d="M9.07 11.332L8.174 10.324C7.32467 11.108 6.37267 11.5 5.318 11.5C4.37533 11.5 3.65667 11.304 3.162 10.912C2.67667 10.5107 2.35933 10.0907 2.21 9.652C2.07 9.204 2 8.83067 2 8.532C2 8.32667 2.042 8.056 2.126 7.72C2.21933 7.384 2.39667 7.01533 2.658 6.614C2.91933 6.21267 3.29267 5.858 3.778 5.55C3.45133 5.22333 3.19467 4.906 3.008 4.598C2.82133 4.28067 2.728 3.90733 2.728 3.478C2.728 3.12333 2.826 2.75467 3.022 2.372C3.218 1.98 3.512 1.65333 3.904 1.392C4.296 1.13067 4.76733 1 5.318 1C5.85933 1 6.326 1.126 6.718 1.378C7.11933 1.63 7.42267 1.94733 7.628 2.33C7.84267 2.71267 7.95 3.09533 7.95 3.478C7.95 3.982 7.79133 4.43 7.474 4.822C7.15667 5.20467 6.68067 5.57333 6.046 5.928L8.132 8.252C8.328 7.95333 8.62667 7.42133 9.028 6.656L10.232 7.3C10.008 7.73867 9.812 8.10733 9.644 8.406C9.48533 8.69533 9.29867 8.98933 9.084 9.288L10.946 11.332H9.07ZM3.372 8.532C3.372 8.87733 3.498 9.232 3.75 9.596C4.01133 9.95067 4.534 10.128 5.318 10.128C6.02733 10.128 6.66667 9.85733 7.236 9.316L4.758 6.572C4.226 6.84267 3.862 7.174 3.666 7.566C3.47 7.94867 3.372 8.27067 3.372 8.532ZM4.1 3.478C4.1 3.68333 4.156 3.86533 4.268 4.024C4.38 4.17333 4.56667 4.374 4.828 4.626L5.108 4.892C5.64 4.63067 6.018 4.39733 6.242 4.192C6.466 3.97733 6.578 3.73933 6.578 3.478C6.578 3.17933 6.47067 2.92267 6.256 2.708C6.04133 2.484 5.72867 2.372 5.318 2.372C4.898 2.372 4.59 2.484 4.394 2.708C4.198 2.92267 4.1 3.17933 4.1 3.478Z" fill="#FE5A65"/>
</g>
</svg>
