<svg width="24" height="24" viewBox="0 0 24 24" fill="none" xmlns="http://www.w3.org/2000/svg">
<path d="M4.56603 14.1321L4.36387 15.345C4.26228 15.9546 4.73232 16.5094 5.35026 16.5094H6.94338M10.9056 16.5094H14.0755M18.2358 16.5094H19.6943C20.1248 16.5094 20.5069 16.234 20.643 15.8257L21.5612 13.0709C21.7771 12.4234 21.2951 11.7547 20.6126 11.7547H19.3185C18.6679 11.7547 18.1906 11.1433 18.3484 10.5122L18.9158 8.24254C19.0736 7.61139 18.5962 7 17.9456 7H6.60183C6.11299 7 5.6958 7.35341 5.61544 7.8356L5.55659 8.18868L5.45754 8.78302" stroke="#9196A7" stroke-linecap="round" stroke-linejoin="round"/>
<path d="M3.37744 8.9812H8.92461" stroke="#9196A7" stroke-linecap="round"/>
<path d="M1.79248 10.566H7.33965" stroke="#9196A7" stroke-linecap="round"/>
<path d="M2.58496 12.151H8.13213" stroke="#9196A7" stroke-linecap="round"/>
<path d="M1 13.736H6.54717" stroke="#9196A7" stroke-linecap="round"/>
<circle cx="8.92448" cy="16.5094" r="1.87736" stroke="#9196A7"/>
<circle cx="16.0566" cy="16.5094" r="1.87736" stroke="#9196A7"/>
<path d="M13.5185 8.59636C13.612 8.12894 14.0224 7.79248 14.4991 7.79248H16.4218C17.0528 7.79248 17.5261 8.3698 17.4023 8.9886L17.0099 10.9509C16.9164 11.4183 16.506 11.7547 16.0293 11.7547H14.1066C13.4756 11.7547 13.0023 11.1774 13.1261 10.5586L13.5185 8.59636Z" fill="#9196A7"/>
</svg>
