<svg width="140" height="100" viewBox="0 0 140 100" fill="none" xmlns="http://www.w3.org/2000/svg">
<path d="M69.34 98.5164C87.3813 98.5164 102.007 95.9794 102.007 92.8498C102.007 89.7202 87.3813 87.1831 69.34 87.1831C51.2987 87.1831 36.6733 89.7202 36.6733 92.8498C36.6733 95.9794 51.2987 98.5164 69.34 98.5164Z" fill="#E7E9ED"/>
<path d="M39.14 32.9367C44.65 30.9367 48.7267 25.47 49.07 19.6167C49.1267 18.66 49.0934 17.6833 49.3867 16.77C49.6767 15.8567 50.3867 14.9967 51.3367 14.87C52.4667 14.72 53.5034 15.68 53.8434 16.7667C54.1834 17.8533 54 19.0267 53.8134 20.1533C54.0467 19.2833 54.3134 18.3567 55.01 17.7867C55.7067 17.2167 56.97 17.2733 57.3067 18.1067C57.58 18.78 57.1334 19.5167 56.6767 20.0833C55.47 21.5733 54.0367 22.8767 52.4367 23.9367C53.1867 23.0167 54.28 21.9967 55.39 22.42C56.4767 22.8367 56.6134 24.45 55.9267 25.3867C55.24 26.3233 54.0667 26.75 52.9667 27.12C58.6434 26.1233 64.7267 27.7667 69.1267 31.4867C68.6734 30.3667 70.45 29.2067 71.2934 30.0767C70.23 25.3967 70.5167 20.4133 72.1167 15.8867C73.3067 20.8333 77.3867 24.5633 81.84 27.2967C85.5534 26.7167 89.4434 27.3267 92.8034 29.01C96.1634 30.6933 98.9767 33.4467 100.737 36.77C100.737 36.77 101.48 36.92 101.217 36.8067C106.93 36.7533 112.627 35.2367 117.61 32.4367C114.683 39.3267 110.653 45.7433 105.363 51.53C104.293 55.8867 100.257 59.3433 96.15 59.6467C98.2334 62.7267 99.5134 66.3433 99.8167 70.1933C101.94 71 104.217 69.1467 105.153 67.0767C106.093 65.0067 106.277 62.6333 107.377 60.6467C108.753 58.1567 111.577 56.5434 114.42 56.6167C117.263 56.6934 119.997 58.4567 121.237 61.0133C121.693 61.9533 121.957 63.0467 121.647 64.0434C121.337 65.04 120.313 65.86 119.29 65.6667C117.443 65.32 117.307 62.5533 115.763 61.4833C114.307 60.4767 112.207 61.4567 111.21 62.92C110.213 64.3833 109.907 66.2 109.183 67.82C107.663 71.2267 104.147 73.65 100.117 74.4833C100.287 75.3533 100.46 76.24 100.37 77.12C100.28 78.0033 99.8867 78.8967 99.1467 79.3833C98.5234 79.7934 97.7134 79.88 97.1367 80.3533C96.53 80.8533 96.31 81.6667 96.12 82.4267C95.6834 84.1934 95.2434 85.96 94.8067 87.7234C94.4567 89.1367 94.0767 92.6067 93.1267 93.7067C92.1767 94.81 90.47 95.4033 88.7134 94.4233C87.8834 90.23 87.6067 86.9267 87.7434 82.5333C86.15 82.9367 84.4634 82.9633 82.8567 82.6067C82.5367 86.3034 82.2167 88 81.8967 91.6967C81.81 92.6867 81.7234 93.6867 81.3667 94.5367C79.9167 94.9 78.35 94.7733 76.9634 93.9867C75.02 87.6233 73.7367 80.06 72.9267 73.2267C71.5767 74.5967 69.3134 74.9533 67.61 74.0667C67.4 75.32 67.1867 76.5767 66.8234 77.92C67.67 82.2067 68.3067 86.5367 68.7334 90.8867C68.8234 91.79 68.88 92.78 68.3634 93.5267C67.6734 94.5267 66.2634 94.67 65.05 94.5967C64.0834 94.54 63.1167 94.41 62.0567 93.9067C61.6867 92.69 61.3067 91.5 61.1767 90.24C61.1234 89.7367 61.18 89.1967 61.18 88.6867C61.18 87.6933 61.07 86.7067 61 85.72C60.9234 84.6467 60.4534 83.7967 59.9434 82.9C59.6067 82.3067 59.3134 81.59 59.2534 80.89C59.23 80.6133 59.3034 80.36 58.8234 80.01C57.5167 80.5333 56.12 80.83 54.5867 80.92C53.0467 84.6033 51.51 88.29 49.97 91.9734C49.6267 92.7934 49.2434 93.6633 48.4967 94.14C47.3434 94.8767 45.83 94.4 44.5534 93.9067C43.31 93.4267 41.8867 92.7267 41.6867 91.41C41.5834 90.7234 41.86 90.04 42.13 89.4C43.7167 85.67 45.3834 81.9733 47.1267 78.4367C46.4767 75.25 46.3734 71.9533 46.97 68.5267C45.14 71.0133 42.3334 72.65 39.3834 73.5667C38.2834 73.91 37.1 74.16 35.9834 73.88C34.8634 73.6 33.8434 72.6433 33.83 71.49C33.8167 70.1567 35.0334 69.1867 36.1034 68.3967C40.76 64.9534 44.86 60.8233 49.0334 56.5C44.5134 57.3667 39.6767 56.45 35.58 53.9133C35.7134 54.8167 35.1134 55.8667 34.2034 55.9233C33.2934 55.98 32.6067 54.61 33.3434 54.07C32.9867 55.31 32.58 56.6267 31.5767 57.44C30.5767 58.2533 28.7867 58.2 28.2534 57.0267C27.0534 58.4 25.8234 59.7967 24.2467 60.71C22.67 61.6233 20.65 61.98 19.0167 61.17C17.3834 60.36 16.4334 58.16 17.3567 56.5867C16.29 56.6433 15.13 56.4167 14.3967 55.6367C13.6634 54.8567 13.5967 53.4267 14.4667 52.8033C15.3467 52.1733 16.5434 52.6267 17.61 52.8033C21.2434 53.4 24.4134 50.4734 26.8867 47.75C31.4434 42.73 35.8434 37.57 40.08 32.28" fill="white"/>
<path d="M46.3967 73.6235C41.2534 77.9269 33.6667 79.0669 27.4867 76.4669C26.1401 75.9002 24.8201 75.1635 23.3634 75.0735C21.9067 74.9835 20.2501 75.8202 20.0401 77.2669C19.8967 78.2569 20.4834 79.2435 21.2801 79.8502C22.0767 80.4569 23.0601 80.7602 24.0201 81.0435C23.5001 80.3469 22.2701 80.5502 21.8301 81.3002C21.3901 82.0502 21.6467 83.0635 22.2434 83.6969C22.8401 84.3302 23.6967 84.6469 24.5467 84.8335C27.9834 85.5869 31.7767 84.3802 34.1467 81.7835C33.4967 82.1502 32.8201 82.5369 32.4167 83.1635C32.0134 83.7902 31.9867 84.7302 32.5634 85.2002C33.1767 85.7002 34.0934 85.4535 34.8001 85.0969C36.6334 84.1769 38.1701 82.6769 39.1334 80.8669C38.9467 81.9802 38.7601 83.0902 38.5734 84.2035C42.5767 82.2535 45.6101 78.4135 46.5734 74.0635" fill="white"/>
<path d="M45.747 50.1658C49.4056 48.9103 51.498 45.3473 50.4206 42.2076C49.3432 39.068 45.5039 37.5406 41.8453 38.7961C38.1867 40.0516 36.0942 43.6145 37.1717 46.7542C38.2491 49.8939 42.0884 51.4213 45.747 50.1658Z" fill="#FF8C91"/>
<path d="M73.9437 42.0459C74.7125 38.8169 72.2854 35.4731 68.5228 34.5774C64.7602 33.6816 61.0868 35.573 60.3181 38.8019C59.5493 42.0309 61.9764 45.3746 65.739 46.2704C69.5016 47.1662 73.175 45.2748 73.9437 42.0459Z" fill="#FF8C91"/>
<path d="M75.0009 46.1497C78.6854 44.9727 80.8535 41.4554 79.8435 38.2935C78.8334 35.1316 75.0277 33.5225 71.3432 34.6995C67.6587 35.8764 65.4907 39.3938 66.5007 42.5557C67.5108 45.7176 71.3164 47.3267 75.0009 46.1497Z" fill="#FF8C91"/>
<path d="M101.875 51.4706C103.547 48.6034 102.194 44.6995 98.8532 42.7509C95.5122 40.8023 91.4481 41.5469 89.7759 44.414C88.1037 47.2812 89.4565 51.1851 92.7975 53.1337C96.1386 55.0824 100.203 54.3377 101.875 51.4706Z" fill="#FF8C91"/>
<path d="M70.6567 24.6932C70.62 26.1298 70.58 27.5698 70.5433 29.0065C71.09 28.9865 71.6233 29.3665 71.7833 29.8898C72.5867 29.1532 73.61 28.6632 74.6867 28.4965C73.3467 27.1365 72.0033 25.7765 70.6633 24.4165" fill="#FF8C91"/>
<path d="M103.29 42.4433C104.81 45.3 105.55 48.5666 105.437 51.8366C108.653 48.1333 111.353 43.98 113.433 39.5366C110.293 41.1533 106.84 42.1533 103.323 42.4666" fill="#FF8C91"/>
<path d="M49.0433 57.4131C48.76 59.6231 50.5133 61.8931 52.7233 62.1798C54.2267 62.3731 55.7467 61.7398 56.9133 60.7731C58.08 59.8065 58.9467 58.5298 59.7467 57.2431C59.9933 58.9665 61.8567 60.2765 63.5633 59.9198C64.05 58.0131 63.33 55.8565 61.7933 54.6265C57.6967 56.3698 53.27 57.3398 48.8167 57.4698" fill="#FE5A65"/>
<path d="M77.69 54.7769L76.3067 60.6335C76.2167 61.0169 76.6067 61.3369 76.9634 61.1735L82.2234 58.7935L85.23 63.5535C85.5334 64.0335 86.26 63.9369 86.4267 63.3935L87.87 58.6569" fill="#FE5A65"/>
<path d="M34.57 42.1567C33.3 45.3567 32.0633 49.1234 33.84 52.0734C35.0667 54.1134 37.4333 55.1567 39.7167 55.8201C49.27 58.5967 60.0733 56.6467 68.0567 50.7101" stroke="black" stroke-miterlimit="10" stroke-linecap="round"/>
<path d="M53.8567 19.3698C54.1667 18.2698 54.27 17.0498 53.7767 16.0232C53.2833 14.9932 52.0433 14.2698 50.97 14.6565C50.0967 14.9732 49.5833 15.9032 49.4233 16.8198C49.2633 17.7365 49.39 18.6732 49.38 19.5998C49.3433 22.6598 47.8333 25.5532 45.7967 27.8398C43.76 30.1232 41.2167 31.8832 38.4633 33.5298C35.8833 35.7132 33.9767 38.5698 32.1167 41.3898C30.2567 44.2132 28.3767 47.0798 25.84 49.3132C23.3 51.5432 19.97 53.0965 16.6067 52.7598C15.7933 52.6798 14.8867 52.5098 14.2233 52.9898C13.4433 53.5532 13.4433 54.7998 14.0133 55.5732C14.5833 56.3465 15.5433 56.7298 16.48 56.9365" stroke="black" stroke-miterlimit="10" stroke-linecap="round"/>
<path d="M57.6433 18.3667C56.5433 20.85 54.53 22.9167 52.08 24.0834" stroke="black" stroke-miterlimit="10" stroke-linecap="round"/>
<path d="M50.7733 27.3965C52.4 27.5165 54.0633 26.9865 55.3233 25.9531" stroke="black" stroke-miterlimit="10" stroke-linecap="round"/>
<path d="M58.2966 26.5732C61.7433 27.0232 65.0833 28.2699 68.25 30.2466C68.87 30.2032 69.43 30.6832 69.68 31.2499C69.93 31.8166 69.9366 32.4599 69.9366 33.0832C69.9333 38.6499 70.1566 44.0599 69.7733 49.6132C69.72 50.3866 68.6966 51.3299 68.28 50.6766" stroke="black" stroke-miterlimit="10" stroke-linecap="round"/>
<path d="M18.8134 60.9336C20.9267 61.6803 23.37 61.4269 25.2867 60.2669C27.2034 59.1069 28.5567 57.0569 28.8734 54.8369" stroke="black" stroke-miterlimit="10" stroke-linecap="round"/>
<path d="M30.7833 57.8735C32.25 57.1101 33.1933 55.4435 33.0933 53.7935" stroke="black" stroke-miterlimit="10" stroke-linecap="round"/>
<path d="M34.5734 56.0899C35.1734 55.6532 35.6334 55.0266 35.87 54.3232" stroke="black" stroke-miterlimit="10" stroke-linecap="round" stroke-linejoin="round"/>
<path d="M50.5901 32.8398C50.1667 33.1198 49.9501 33.5831 49.9901 33.6865C50.1067 33.9631 51.1001 33.2231 51.4801 32.8898C51.5467 32.8298 50.9034 32.6331 50.5901 32.8398Z" stroke="black" stroke-miterlimit="10" stroke-linecap="round" stroke-linejoin="round"/>
<path d="M56.57 31.9969C55.74 32.0502 55.36 32.3669 56.0467 32.5302C56.4267 32.6202 56.9367 32.8602 57.3267 32.6936C57.49 32.6202 56.9834 31.9702 56.57 31.9969Z" stroke="black" stroke-miterlimit="10" stroke-linecap="round" stroke-linejoin="round"/>
<path d="M52.1166 37.4022C52.5032 39.1522 53.1366 40.8489 53.9899 42.4256C54.2399 42.8856 54.4765 43.9768 54.9999 44.0001C55.6332 44.0301 56.1566 42.7589 56.3466 42.1522C56.9199 40.3256 56.8532 38.3689 56.7832 36.4556" fill="#FF8C91"/>
<path d="M52.1167 37.9833C52.5034 39.7333 53.1367 41.43 53.99 43.0066C54.24 43.4666 54.59 43.9733 55.1134 43.9966C55.7467 44.0266 56.1567 43.34 56.3467 42.7333C56.92 40.9066 56.8534 38.95 56.7834 37.0366" stroke="black" stroke-miterlimit="10" stroke-linecap="round" stroke-linejoin="round"/>
<path d="M48.6333 57.48C44.1933 61.4833 39.5933 65.3066 34.8433 68.9333C34.02 69.5633 33.7467 70.6866 34.2133 71.6133C34.5067 72.1966 34.8533 72.82 35.16 73.3466C35.61 74.1233 36.5333 74.49 37.3933 74.2333C37.98 74.06 38.62 73.8566 39.0667 73.6733C42.2567 72.3666 44.43 71.3466 46.5767 68.99" stroke="black" stroke-miterlimit="10" stroke-linecap="round" stroke-linejoin="round"/>
<path d="M47.0767 66.5C46.3567 70.5467 46.26 74.7067 46.8067 78.7533C45.8133 81.35 43.37 87.3233 42.1033 90.4067C41.65 91.5133 42.15 92.7833 43.24 93.2767C44.0233 93.63 45.39 94.1367 46.55 94.55C47.71 94.9633 48.9867 94.3833 49.4367 93.2367C50.61 90.26 52.82 84.6867 54.3 81.1033" stroke="black" stroke-miterlimit="10" stroke-linecap="round" stroke-linejoin="round"/>
<path d="M51.17 80.29C54.8067 80.72 58.51 80.6066 62.1134 79.96" stroke="black" stroke-miterlimit="10" stroke-linecap="round" stroke-linejoin="round"/>
<path d="M59.7 81.08C60.1833 83.62 61.2833 89.8999 61.8166 92.9566C61.9899 93.9533 62.8566 94.68 63.8699 94.68H66.8233C67.9666 94.68 68.8699 93.7133 68.7899 92.5733C68.5599 89.2999 68.0299 82.8766 67.1033 78.1133" stroke="black" stroke-miterlimit="10" stroke-linecap="round" stroke-linejoin="round"/>
<path d="M68.7434 62.6565C67.59 62.4798 66.5267 61.9531 65.4167 61.5965C64.3067 61.2365 63.03 61.0031 62.0034 61.5565C61.1567 62.0098 60.2934 64.6831 59.8034 66.4398C59.5434 67.3698 59.9467 68.3531 60.78 68.8331C62.0567 69.5665 63.9234 70.5431 65.0867 70.7065C66.6934 70.9298 68.4067 70.6898 69.76 69.7931C71.1134 68.8965 72.0334 67.2831 71.8667 65.6698C71.6967 64.0531 70.3 62.5831 68.7434 62.6565Z" stroke="black" stroke-miterlimit="10" stroke-linecap="round" stroke-linejoin="round"/>
<path d="M73.0467 52.8735C69.5067 54.6502 66.5367 57.5402 64.6633 61.0269" stroke="black" stroke-miterlimit="10" stroke-linecap="round" stroke-linejoin="round"/>
<path d="M65.3033 70.7832C66.58 72.9065 67.4233 74.2898 68.8433 74.6632C70.2633 75.0365 71.8133 74.4398 72.89 73.4398C73.5333 72.8432 74.0667 72.0265 73.9867 71.1532C73.8533 69.7098 73.07 68.8465 72.0433 67.3398" stroke="black" stroke-miterlimit="10" stroke-linecap="round" stroke-linejoin="round"/>
<path d="M63.77 53.8867C65.2834 54.4967 66.72 55.2934 68.0434 56.2467" stroke="black" stroke-miterlimit="10" stroke-linecap="round" stroke-linejoin="round"/>
<path d="M63.8833 58.7798C64.0533 59.4531 64.22 60.1298 64.39 60.8031" stroke="black" stroke-miterlimit="10" stroke-linecap="round" stroke-linejoin="round"/>
<path d="M67.49 74.1836C67.67 75.4436 67.5467 76.7436 67.13 77.9469" stroke="black" stroke-miterlimit="10" stroke-linecap="round" stroke-linejoin="round"/>
<path d="M73.5634 59.8667C72.94 62.3267 72.6834 64.88 72.8067 67.4134" stroke="black" stroke-miterlimit="10" stroke-linecap="round" stroke-linejoin="round"/>
<path d="M72.9933 73.9766L76.2733 92.3899C76.5166 93.6832 77.6666 94.6099 78.98 94.5732L80.58 94.5266C81.29 94.5066 81.87 93.9599 81.9366 93.2566L83.14 82.4366" stroke="black" stroke-miterlimit="10" stroke-linecap="round" stroke-linejoin="round"/>
<path d="M80.4734 81.8501C82.9801 82.4334 85.5634 82.6901 87.8834 82.6668C87.8167 85.9368 88.3667 90.5934 88.6601 93.3201C88.7534 94.2034 89.5067 94.8668 90.3967 94.8501L91.8901 94.8234C92.8601 94.8068 93.7067 94.1701 93.9901 93.2435C94.7934 90.6301 96.2934 83.3034 96.2934 79.9601C96.2934 74.4434 96.4701 70.1501 93.6467 62.9468" stroke="black" stroke-miterlimit="10" stroke-linecap="round" stroke-linejoin="round"/>
<path d="M69.3367 50.8131L69.5067 50.9898C69.9767 51.4731 70.74 51.5198 71.2667 51.0965L71.28 51.0831C76.18 54.7365 81.8233 57.3831 87.7667 58.8131C90.59 59.4931 93.53 59.8998 96.4 59.4465C99.27 58.9931 102.077 57.5965 103.767 55.2331C105.457 52.8698 105.647 49.9865 104.91 46.3765" stroke="black" stroke-miterlimit="10" stroke-linecap="round" stroke-linejoin="round"/>
<path d="M85.1222 37.1816C84.1221 37.1816 84.1343 40.737 84.378 42.5834C84.4562 43.1656 84.6343 43.8622 85.1218 43.9838C85.5874 44.098 85.9874 43.5931 86.2499 43.1251C87.0374 41.7284 88.6309 40.6217 88.9997 39.0001" fill="#FF8C91"/>
<path d="M84.1433 37.8999C84.1533 39.5899 84.2866 41.2799 84.5466 42.9499C84.63 43.4766 84.82 44.1066 85.34 44.2166C85.8366 44.3199 86.2633 43.8632 86.5433 43.4399C87.3833 42.1766 88.0166 40.7732 88.41 39.3066" stroke="black" stroke-miterlimit="10" stroke-linecap="round" stroke-linejoin="round"/>
<path d="M100.84 36.8036C98.1034 33.2003 95.54 29.6569 91.4034 28.3469C80.9967 25.0469 72.65 29.0703 71.69 29.8569C71.42 29.4136 70.77 29.4636 70.41 29.6069C69.5567 29.9436 69.68 30.7903 69.68 31.2503" stroke="black" stroke-miterlimit="10" stroke-linecap="round" stroke-linejoin="round"/>
<path d="M81.56 26.8235C77.31 24.1968 74.0333 20.0401 72.4667 15.2935C70.7767 19.8135 70.1233 24.7201 70.5767 29.5235" stroke="black" stroke-miterlimit="10" stroke-linecap="round" stroke-linejoin="round"/>
<path d="M70.6333 24.0298C71.7233 25.4465 72.9366 26.7665 74.2566 27.9731" stroke="black" stroke-miterlimit="10" stroke-linecap="round" stroke-linejoin="round"/>
<path d="M100.84 36.8035C106.747 36.1535 112.557 34.6568 118.04 32.3701C114.637 39.3135 110.38 45.8368 105.397 51.7534" stroke="black" stroke-miterlimit="10" stroke-linecap="round" stroke-linejoin="round"/>
<path d="M103.243 42.3031C107.213 41.6998 110.77 40.8364 114.393 39.1064" stroke="black" stroke-miterlimit="10" stroke-linecap="round" stroke-linejoin="round"/>
<path d="M95.66 59.6167C99.0334 63.8467 99.9334 69.4967 100.42 74.8867C100.54 76.2 100.627 77.5967 100.007 78.7634C99.39 79.93 96.7034 79.9367 96.7034 79.9367" stroke="black" stroke-miterlimit="10" stroke-linecap="round" stroke-linejoin="round"/>
<path d="M46.08 73.8232C40.24 77.9066 32.3634 78.8999 25.6934 76.3999C24.6334 76.0032 23.56 75.5166 22.43 75.5599C21.3 75.6066 20.0967 76.4032 20.0667 77.5366C20.0267 78.9632 21.67 79.7499 23.0334 80.1732" stroke="black" stroke-miterlimit="10" stroke-linecap="round" stroke-linejoin="round"/>
<path d="M24.9067 84.5602C27.9667 85.6535 31.6867 84.4835 33.57 81.8335" stroke="black" stroke-miterlimit="10" stroke-linecap="round" stroke-linejoin="round"/>
<path d="M34.3033 84.8566C36.2567 84.2633 37.9767 82.9333 39.04 81.1899" stroke="black" stroke-miterlimit="10" stroke-linecap="round" stroke-linejoin="round"/>
<path d="M41.1067 82.6732C43.66 80.6398 45.5634 77.7998 46.4767 74.6665" stroke="black" stroke-miterlimit="10" stroke-linecap="round" stroke-linejoin="round"/>
<path d="M99.9366 70.1265C102.073 70.7532 104.193 68.8965 105.113 66.8698C106.033 64.8432 106.277 62.5298 107.397 60.6065C108.8 58.1965 111.593 56.6665 114.38 56.7798C117.167 56.8932 119.823 58.6465 121.027 61.1632C121.477 62.1032 121.73 63.1998 121.413 64.1932C121.097 65.1865 120.067 65.9932 119.047 65.7932C117.837 65.5565 117.277 64.1898 116.903 63.0132C116.187 60.7565 113.087 60.6332 112.13 61.5865C110.643 63.0732 110.443 64.3365 110.163 65.4032C108.89 70.2465 105.343 73.3732 100.35 73.7598" stroke="black" stroke-miterlimit="10" stroke-linecap="round" stroke-linejoin="round"/>
<path d="M85.4001 33.9335C85.3401 33.6969 84.6134 33.0602 83.8 33.0935C83.4167 33.1102 83.6834 33.4835 84.0234 33.6702C84.36 33.8602 84.8467 33.9569 85.4001 33.9335Z" stroke="black" stroke-miterlimit="10" stroke-linecap="round" stroke-linejoin="round"/>
<path d="M89.03 34.8631C89.43 34.7598 89.55 34.7364 89.8734 34.6864C90.17 34.6398 90.5234 34.5798 90.7434 34.6798C90.9334 34.7664 90.8867 34.9264 90.69 35.0131C90.4934 35.0998 90.1934 35.1164 89.9267 35.0931C89.66 35.0698 89.4167 35.0064 89.03 34.8631Z" stroke="black" stroke-miterlimit="10" stroke-linecap="round" stroke-linejoin="round"/>
<path d="M108.023 16.0034C109.407 13.9134 110.79 11.8234 112.173 9.7334" stroke="black" stroke-miterlimit="10" stroke-linecap="round"/>
<path d="M113.04 20.1534C115.097 18.45 117.157 16.7434 119.213 15.04" stroke="black" stroke-miterlimit="10" stroke-linecap="round"/>
<path d="M116.513 24.7834C118.603 23.9801 120.693 23.1768 122.783 22.3701" stroke="black" stroke-miterlimit="10" stroke-linecap="round"/>
<path d="M104.843 12.6167C112.25 13.47 118.553 20.13 119 27.57" stroke="black" stroke-miterlimit="10" stroke-linecap="round"/>
<path d="M103.493 9.09668C108.823 9.31001 114.013 11.91 117.373 16.0533C120.733 20.1933 122.213 25.8067 121.323 31.0667" stroke="black" stroke-miterlimit="10" stroke-linecap="round"/>
<path d="M24.5634 18.4434C25.61 20.5 26.6567 22.5534 27.7034 24.61" stroke="black" stroke-miterlimit="10" stroke-linecap="round"/>
<path d="M16.38 25.2832C19.0333 27.0399 21.6867 28.7965 24.34 30.5532" stroke="black" stroke-miterlimit="10" stroke-linecap="round"/>
<path d="M13.4667 34.0269C16.83 34.4369 20.1933 34.8502 23.5567 35.2602" stroke="black" stroke-miterlimit="10" stroke-linecap="round"/>
<path d="M32.0033 20.6802C24.27 23.5502 19.45 32.6602 21.43 40.6668" stroke="black" stroke-miterlimit="10" stroke-linecap="round"/>
<path d="M30.8334 17.5332C22.1934 21.6965 16.3934 31.1632 16.6167 40.7532" stroke="black" stroke-miterlimit="10" stroke-linecap="round"/>
<path d="M54.1267 35.6668C54.3334 35.3835 54.5434 35.1001 54.7501 34.8135C54.2301 34.9101 53.7101 35.0101 53.1901 35.1068C53.5101 35.2868 53.8267 35.4668 54.1467 35.6468" stroke="black" stroke-miterlimit="10" stroke-linecap="round" stroke-linejoin="round"/>
<path d="M86.2366 36.6401C86.49 36.4934 86.7433 36.3434 86.9933 36.1968C86.5767 36.0601 86.1566 35.9434 85.73 35.8501C85.8833 36.1268 86.0366 36.4034 86.1933 36.6801" stroke="black" stroke-miterlimit="10" stroke-linecap="round" stroke-linejoin="round"/>
<path d="M50.73 37.1102C51.2733 37.6969 52.2 37.8935 52.9333 37.5735C53.6666 37.2535 54.1566 36.4435 54.0933 35.6435C54.39 36.4835 55.3233 37.0469 56.2033 36.9202C57.0866 36.7935 57.82 35.9902 57.87 35.1035" stroke="black" stroke-miterlimit="10" stroke-linecap="round" stroke-linejoin="round"/>
<path d="M82.8633 36.9935C83.8399 37.7135 85.3633 37.5335 86.1433 36.6035C86.4999 38.2668 88.3699 39.4335 90.0199 39.0269" stroke="black" stroke-miterlimit="10" stroke-linecap="round" stroke-linejoin="round"/>
</svg>
