<svg width="63" height="16" viewBox="0 0 63 16" fill="none" xmlns="http://www.w3.org/2000/svg">
<g id="&#237;&#143;&#172;&#236;&#158;&#137;&#235;&#167;&#136;&#236;&#188;&#147;">
<path d="M1.547 14.9587C1.22967 14.9587 0.969 14.9247 0.765 14.8567C0.561 14.7887 0.402333 14.698 0.289 14.5847C0.175667 14.4827 0.0963333 14.358 0.051 14.2107C0.017 14.0747 0 13.9387 0 13.8027C0 13.6327 0.017 13.474 0.051 13.3267C0.0963333 13.1907 0.175667 13.066 0.289 12.9527C0.402333 12.8507 0.561 12.7657 0.765 12.6977C0.969 12.641 1.22967 12.6127 1.547 12.6127H6.086V9.17866H2.312C1.99467 9.17866 1.734 9.14466 1.53 9.07666C1.326 9.00866 1.16733 8.92366 1.054 8.82166C0.940667 8.70833 0.861333 8.58366 0.816 8.44766C0.782 8.30033 0.765 8.15866 0.765 8.02266C0.765 7.85266 0.782 7.69966 0.816 7.56366C0.861333 7.41633 0.940667 7.29166 1.054 7.18966C1.16733 7.07633 1.326 6.99133 1.53 6.93466C1.734 6.86666 1.99467 6.83266 2.312 6.83266H3.043V3.10966H2.397C2.07967 3.10966 1.819 3.07566 1.615 3.00766C1.411 2.93966 1.25233 2.85466 1.139 2.75266C1.02567 2.63933 0.946333 2.51466 0.901 2.37866C0.867 2.23133 0.85 2.08966 0.85 1.95366C0.85 1.78366 0.867 1.63066 0.901 1.49466C0.946333 1.34733 1.02567 1.22266 1.139 1.12066C1.25233 1.00733 1.411 0.922327 1.615 0.86566C1.819 0.79766 2.07967 0.76366 2.397 0.76366H12.512C12.8293 0.76366 13.09 0.79766 13.294 0.86566C13.498 0.922327 13.6567 1.00733 13.77 1.12066C13.8833 1.22266 13.957 1.34733 13.991 1.49466C14.0363 1.63066 14.059 1.78366 14.059 1.95366C14.059 2.08966 14.0363 2.23133 13.991 2.37866C13.957 2.51466 13.8833 2.63933 13.77 2.75266C13.6567 2.85466 13.498 2.93966 13.294 3.00766C13.09 3.07566 12.8293 3.10966 12.512 3.10966H11.866V6.83266H12.597C12.9143 6.83266 13.175 6.86666 13.379 6.93466C13.583 6.99133 13.7417 7.07633 13.855 7.18966C13.9683 7.29166 14.042 7.41633 14.076 7.56366C14.1213 7.69966 14.144 7.85266 14.144 8.02266C14.144 8.15866 14.1213 8.30033 14.076 8.44766C14.042 8.58366 13.9683 8.70833 13.855 8.82166C13.7417 8.92366 13.583 9.00866 13.379 9.07666C13.175 9.14466 12.9143 9.17866 12.597 9.17866H8.84V12.6127H13.362C13.6793 12.6127 13.94 12.641 14.144 12.6977C14.348 12.7657 14.5067 12.8507 14.62 12.9527C14.7333 13.066 14.807 13.1907 14.841 13.3267C14.8863 13.474 14.909 13.6327 14.909 13.8027C14.909 13.9387 14.8863 14.0747 14.841 14.2107C14.807 14.358 14.7333 14.4827 14.62 14.5847C14.5067 14.698 14.348 14.7887 14.144 14.8567C13.94 14.9247 13.6793 14.9587 13.362 14.9587H1.547ZM9.112 6.83266V3.10966H5.797V6.83266H9.112Z" fill="#FE5A65"/>
<path d="M19.8423 15.3667C19.3097 15.3667 18.8563 15.2817 18.4823 15.1117C18.1083 14.9417 17.808 14.7093 17.5813 14.4147C17.3547 14.1313 17.1903 13.8027 17.0883 13.4287C16.9863 13.066 16.9353 12.6863 16.9353 12.2897C16.9353 11.893 16.9807 11.5077 17.0713 11.1337C17.162 10.7597 17.315 10.431 17.5303 10.1477C17.757 9.86433 18.0573 9.63766 18.4313 9.46766C18.8167 9.29766 19.2983 9.21266 19.8763 9.21266H27.1523C27.7303 9.21266 28.2063 9.29766 28.5803 9.46766C28.9657 9.63766 29.266 9.86433 29.4813 10.1477C29.708 10.431 29.8667 10.7597 29.9573 11.1337C30.048 11.5077 30.0933 11.893 30.0933 12.2897C30.0933 12.6863 30.0423 13.066 29.9403 13.4287C29.8383 13.8027 29.6683 14.1313 29.4303 14.4147C29.2037 14.7093 28.9033 14.9417 28.5293 15.1117C28.1667 15.2817 27.719 15.3667 27.1863 15.3667H19.8423ZM26.4213 13.0547C26.75 13.0547 26.988 13.0037 27.1353 12.9017C27.2827 12.7997 27.3563 12.5957 27.3563 12.2897C27.3563 11.9723 27.2827 11.7627 27.1353 11.6607C26.988 11.5587 26.75 11.5077 26.4213 11.5077H20.6073C20.2787 11.5077 20.0407 11.5587 19.8933 11.6607C19.746 11.7627 19.6723 11.9723 19.6723 12.2897C19.6723 12.5957 19.746 12.7997 19.8933 12.9017C20.0407 13.0037 20.2787 13.0547 20.6073 13.0547H26.4213ZM20.1143 8.19266C18.7883 8.19266 17.8137 7.90366 17.1903 7.32566C16.5783 6.74766 16.2723 5.78433 16.2723 4.43566C16.2723 3.08699 16.5783 2.11799 17.1903 1.52866C17.8137 0.939327 18.7883 0.64466 20.1143 0.64466C21.4403 0.64466 22.4093 0.939327 23.0213 1.52866C23.6447 2.11799 23.9563 3.08699 23.9563 4.43566C23.9563 5.14966 23.877 5.75033 23.7183 6.23766C23.571 6.71366 23.3387 7.09899 23.0213 7.39366C22.7153 7.67699 22.3187 7.88099 21.8313 8.00566C21.344 8.13033 20.7717 8.19266 20.1143 8.19266ZM20.1143 5.94866C20.5677 5.94866 20.8567 5.84099 20.9813 5.62566C21.1173 5.39899 21.1853 5.00233 21.1853 4.43566C21.1853 3.86899 21.1173 3.47233 20.9813 3.24566C20.8567 3.01899 20.5677 2.90566 20.1143 2.90566C19.661 2.90566 19.3663 3.01899 19.2303 3.24566C19.1057 3.47233 19.0433 3.86899 19.0433 4.43566C19.0433 5.00233 19.1057 5.39899 19.2303 5.62566C19.3663 5.84099 19.661 5.94866 20.1143 5.94866ZM28.4953 8.37966C28.314 8.37966 28.1383 8.35699 27.9683 8.31166C27.8097 8.26633 27.6623 8.18699 27.5263 8.07366C27.4017 7.96033 27.2997 7.80733 27.2203 7.61466C27.1523 7.42199 27.1183 7.17833 27.1183 6.88366V2.05566C27.1183 1.48899 27.2543 1.10366 27.5263 0.89966C27.8097 0.684327 28.1327 0.57666 28.4953 0.57666C28.6767 0.57666 28.8467 0.599327 29.0053 0.64466C29.1753 0.689994 29.3227 0.769327 29.4473 0.88266C29.572 0.995993 29.674 1.14899 29.7533 1.34166C29.8327 1.53433 29.8723 1.77233 29.8723 2.05566V6.88366C29.8723 7.17833 29.8327 7.42199 29.7533 7.61466C29.674 7.80733 29.572 7.96033 29.4473 8.07366C29.3227 8.18699 29.1753 8.26633 29.0053 8.31166C28.8467 8.35699 28.6767 8.37966 28.4953 8.37966Z" fill="#FE5A65"/>
<path d="M34.2446 14.7377C33.9273 14.7377 33.678 14.7037 33.4966 14.6357C33.3153 14.579 33.1736 14.494 33.0716 14.3807C32.981 14.2787 32.9243 14.154 32.9016 14.0067C32.879 13.8707 32.8676 13.7177 32.8676 13.5477V2.05566C32.8676 1.88566 32.879 1.72699 32.9016 1.57966C32.9243 1.42099 32.981 1.27933 33.0716 1.15466C33.1736 1.02999 33.3153 0.93366 33.4966 0.86566C33.678 0.786327 33.9273 0.74666 34.2446 0.74666H38.6306C38.948 0.74666 39.1973 0.786327 39.3786 0.86566C39.56 0.93366 39.696 1.02999 39.7866 1.15466C39.8886 1.27933 39.951 1.42099 39.9736 1.57966C39.9963 1.72699 40.0076 1.88566 40.0076 2.05566V13.5477C40.0076 13.7177 39.9963 13.8707 39.9736 14.0067C39.951 14.154 39.8886 14.2787 39.7866 14.3807C39.696 14.494 39.56 14.579 39.3786 14.6357C39.1973 14.7037 38.948 14.7377 38.6306 14.7377H34.2446ZM37.3216 12.3917V3.09266H35.5536V12.3917H37.3216ZM43.7476 15.1627C43.5663 15.1627 43.3906 15.14 43.2206 15.0947C43.062 15.0493 42.9146 14.97 42.7786 14.8567C42.654 14.7433 42.552 14.5903 42.4726 14.3977C42.4046 14.205 42.3706 13.9613 42.3706 13.6667V2.05566C42.3706 1.48899 42.5066 1.10366 42.7786 0.89966C43.062 0.684327 43.385 0.57666 43.7476 0.57666C43.929 0.57666 44.099 0.599327 44.2576 0.64466C44.4276 0.689994 44.575 0.769327 44.6996 0.88266C44.8243 0.995993 44.9263 1.14899 45.0056 1.34166C45.085 1.53433 45.1246 1.77233 45.1246 2.05566V6.13566H46.1956C46.513 6.13566 46.7736 6.16966 46.9776 6.23766C47.1816 6.30566 47.3403 6.39633 47.4536 6.50966C47.567 6.61166 47.6406 6.73633 47.6746 6.88366C47.72 7.01966 47.7426 7.15566 47.7426 7.29166C47.7426 7.46166 47.72 7.62033 47.6746 7.76766C47.6406 7.90366 47.567 8.02833 47.4536 8.14166C47.3403 8.24366 47.1816 8.32866 46.9776 8.39666C46.7736 8.45333 46.513 8.48166 46.1956 8.48166H45.1246V13.6667C45.1246 13.9613 45.085 14.205 45.0056 14.3977C44.9263 14.5903 44.8243 14.7433 44.6996 14.8567C44.575 14.97 44.4276 15.0493 44.2576 15.0947C44.099 15.14 43.929 15.1627 43.7476 15.1627Z" fill="#FE5A65"/>
<path d="M51.571 9.00866C51.435 8.94066 51.3216 8.84433 51.231 8.71966C51.1403 8.59499 51.078 8.45899 51.044 8.31166C51.01 8.15299 51.01 7.99433 51.044 7.83566C51.078 7.66566 51.1516 7.50699 51.265 7.35966C51.4123 7.16699 51.554 6.96866 51.69 6.76466C51.792 6.61733 51.877 6.45866 51.945 6.28866H49.65C49.3326 6.28866 49.0776 6.26599 48.885 6.22066C48.6923 6.16399 48.545 6.09033 48.443 5.99966C48.341 5.89766 48.273 5.77866 48.239 5.64266C48.2163 5.50666 48.205 5.35366 48.205 5.18366C48.205 5.04766 48.222 4.91733 48.256 4.79266C48.29 4.65666 48.358 4.53766 48.46 4.43566C48.5733 4.33366 48.7263 4.25433 48.919 4.19766C49.1116 4.14099 49.3666 4.11266 49.684 4.11266H52.2V2.99066H49.837C49.5196 2.99066 49.2646 2.96233 49.072 2.90566C48.8793 2.84899 48.732 2.77533 48.63 2.68466C48.528 2.58266 48.46 2.46366 48.426 2.32766C48.4033 2.19166 48.392 2.03866 48.392 1.86866C48.392 1.73266 48.409 1.60233 48.443 1.47766C48.477 1.34166 48.545 1.22266 48.647 1.12066C48.7603 1.01866 48.9133 0.939327 49.106 0.88266C49.2986 0.81466 49.5536 0.780661 49.871 0.780661H53.475C53.781 0.780661 54.019 0.81466 54.189 0.88266C54.359 0.939327 54.4893 1.02433 54.58 1.13766C54.6706 1.23966 54.7273 1.36999 54.75 1.52866C54.7726 1.68733 54.784 1.86866 54.784 2.07266V3.67066H56.484V2.05566C56.484 1.48899 56.5916 1.10366 56.807 0.89966C57.0223 0.684327 57.3113 0.57666 57.674 0.57666C58.0253 0.57666 58.3086 0.684327 58.524 0.89966C58.7506 1.10366 58.864 1.48899 58.864 2.05566V7.15566C58.864 7.74499 58.7563 8.14166 58.541 8.34566C58.337 8.54966 58.0536 8.65166 57.691 8.65166C57.3283 8.65166 57.0336 8.54966 56.807 8.34566C56.5916 8.14166 56.484 7.74499 56.484 7.15566V6.08466H54.631C54.5516 6.54933 54.4043 6.99699 54.189 7.42766C53.951 7.92633 53.611 8.38533 53.169 8.80466C52.8856 9.06533 52.608 9.20133 52.336 9.21266C52.0753 9.21266 51.8203 9.14466 51.571 9.00866ZM50.738 15.4177C50.568 15.429 50.398 15.4233 50.228 15.4007C50.058 15.378 49.905 15.327 49.769 15.2477C49.633 15.1683 49.514 15.0607 49.412 14.9247C49.3213 14.7887 49.259 14.6073 49.225 14.3807C49.1683 13.95 49.2476 13.6157 49.463 13.3777C49.6783 13.151 50.007 13.0093 50.449 12.9527C50.9363 12.896 51.418 12.8053 51.894 12.6807C52.37 12.5673 52.795 12.403 53.169 12.1877C53.5543 11.9723 53.866 11.7117 54.104 11.4057C54.342 11.0883 54.4666 10.7143 54.478 10.2837V10.0627C54.478 9.74533 54.6026 9.49599 54.852 9.31466C55.1013 9.12199 55.447 9.02566 55.889 9.02566C56.331 9.02566 56.6766 9.12199 56.926 9.31466C57.1753 9.49599 57.3 9.74533 57.3 10.0627V10.3007C57.3 10.6973 57.419 11.0487 57.657 11.3547C57.9063 11.6607 58.218 11.9213 58.592 12.1367C58.9773 12.352 59.408 12.5277 59.884 12.6637C60.36 12.7997 60.836 12.896 61.312 12.9527C61.754 13.0093 62.0826 13.151 62.298 13.3777C62.5133 13.6157 62.5926 13.95 62.536 14.3807C62.502 14.6073 62.434 14.7887 62.332 14.9247C62.2413 15.0607 62.128 15.1683 61.992 15.2477C61.856 15.327 61.703 15.378 61.533 15.4007C61.363 15.4233 61.193 15.429 61.023 15.4177C60.071 15.3383 59.1586 15.1003 58.286 14.7037C57.4133 14.307 56.654 13.831 56.008 13.2757C55.6906 13.5477 55.3223 13.8027 54.903 14.0407C54.495 14.29 54.0586 14.511 53.594 14.7037C53.1406 14.8963 52.6703 15.055 52.183 15.1797C51.6956 15.3043 51.214 15.3837 50.738 15.4177ZM61.346 9.24666C60.9833 9.24666 60.6886 9.14466 60.462 8.94066C60.2466 8.73666 60.139 8.33999 60.139 7.75066V2.05566C60.139 1.48899 60.2466 1.10366 60.462 0.89966C60.6773 0.684327 60.9663 0.57666 61.329 0.57666C61.6803 0.57666 61.9636 0.684327 62.179 0.89966C62.4056 1.10366 62.519 1.48899 62.519 2.05566V7.75066C62.519 8.33999 62.4113 8.73666 62.196 8.94066C61.992 9.14466 61.7086 9.24666 61.346 9.24666Z" fill="#FE5A65"/>
</g>
</svg>
