<svg width="37" height="36" viewBox="0 0 37 36" fill="none" xmlns="http://www.w3.org/2000/svg">
<g id="Person" clip-path="url(#clip0_487_401)">
<path id="Vector" d="M18.5 9C20.15 9 21.5 10.35 21.5 12C21.5 13.65 20.15 15 18.5 15C16.85 15 15.5 13.65 15.5 12C15.5 10.35 16.85 9 18.5 9ZM18.5 24C22.55 24 27.2 25.935 27.5 27H9.5C9.845 25.92 14.465 24 18.5 24ZM18.5 6C15.185 6 12.5 8.685 12.5 12C12.5 15.315 15.185 18 18.5 18C21.815 18 24.5 15.315 24.5 12C24.5 8.685 21.815 6 18.5 6ZM18.5 21C14.495 21 6.5 23.01 6.5 27V30H30.5V27C30.5 23.01 22.505 21 18.5 21Z" fill="#CFD3DB"/>
</g>
<defs>
<clipPath id="clip0_487_401">
<rect width="36" height="36" fill="white" transform="translate(0.5)"/>
</clipPath>
</defs>
</svg>
