<svg width="64" height="64" viewBox="0 0 64 64" fill="none" xmlns="http://www.w3.org/2000/svg">
<g id="Group 82">
<circle id="Ellipse 6" cx="32" cy="32" r="32" fill="#FFF3F3"/>
<g id="Group 81">
<g id="Group 89">
<path id="Union" fill-rule="evenodd" clip-rule="evenodd" d="M34.2875 29.3267C33.8437 29.4399 33.3787 29.5 32.8997 29.5C32.6149 29.5 32.335 29.4788 32.0617 29.4378C31.0741 30.9158 29.3107 31.9 27.2997 31.9C24.2069 31.9 21.6997 29.5719 21.6997 26.7C21.6997 23.8282 24.2069 21.5 27.2997 21.5C27.4778 21.5 27.654 21.5078 27.8278 21.5229C28.7219 19.6186 30.6568 18.3 32.8997 18.3C34.8353 18.3 36.5415 19.282 37.5473 20.775C37.8568 20.7257 38.175 20.7 38.4997 20.7C41.5925 20.7 44.0997 23.0282 44.0997 25.9C44.0997 28.7719 41.5925 31.1 38.4997 31.1C36.8205 31.1 35.3139 30.4138 34.2875 29.3267Z" fill="white"/>
</g>
<g id="Group 80">
<g id="Group 83">
<path id="Vector 30" d="M30.0861 24.919C29.8139 25.981 28.9137 26.3672 27.9565 25.8329C25.627 24.5324 26.4994 19.7931 30.0994 18.5932C30.0994 18.5932 30.8994 18.1932 32.8995 18.1931" stroke="#1A1D20" stroke-width="1.6" stroke-miterlimit="1.41421"/>
<path id="Vector 31" d="M27.9597 25.8318C28.9169 26.3662 29.8171 25.9799 30.0893 24.918C30.7517 22.3336 27.3001 19.8999 23.8638 21.7779C22.4997 22.5234 22.0999 23.9 22.0999 25.8318" stroke="#1A1D20" stroke-width="1.6" stroke-miterlimit="1.41421"/>
<path id="Vector 32" d="M36.9307 25.702C35.9873 26.2604 35.0776 25.897 34.7787 24.8423C34.0511 22.2755 38.7044 19.3828 41.7224 21.5254C41.7224 21.5254 43.3 22.7001 43.2998 25.7019" stroke="#1A1D20" stroke-width="1.6" stroke-miterlimit="1.41421"/>
<path id="Vector 33" d="M34.7805 24.8426C35.0795 25.8974 35.9891 26.2607 36.9325 25.7023C39.2283 24.3433 38.4999 19.3931 34.7805 18.4742C34.7805 18.4742 33.6883 18.1931 32.4997 18.1931" stroke="#1A1D20" stroke-width="1.6" stroke-miterlimit="1.41421"/>
</g>
</g>
<path id="Rectangle 51" d="M16.2403 39.5304L19.8258 27.34C24.6507 29.0943 28.5567 30.0074 32.4944 30.0143C36.4329 30.0213 40.3422 29.1216 45.1749 27.3434L48.7701 39.5673C43.8006 42.9865 38.5435 44.6928 33.1153 44.7C27.6752 44.7072 22.0099 43.0076 16.2403 39.5304Z" fill="#FE5A65" stroke="#1A1D20" stroke-width="1.6" stroke-miterlimit="16"/>
<path id="Ellipse 19" d="M32.8999 39.9001C34.1017 39.9001 35.2293 39.6582 36.0861 39.2299C36.895 38.8254 37.6999 38.1186 37.6999 37.1001C37.6999 36.0816 36.895 35.3748 36.0861 34.9703C35.2293 34.542 34.1017 34.3001 32.8999 34.3001C31.6981 34.3001 30.5705 34.542 29.7137 34.9703C28.9048 35.3748 28.0999 36.0816 28.0999 37.1001C28.0999 38.1186 28.9048 38.8254 29.7137 39.2299C30.5705 39.6582 31.6981 39.9001 32.8999 39.9001Z" fill="white" stroke="#1A1D20" stroke-width="1.6"/>
</g>
</g>
</svg>
