<svg width="64" height="64" viewBox="0 0 64 64" fill="none" xmlns="http://www.w3.org/2000/svg">
<g id="Group 88">
<circle id="Ellipse 7" cx="32" cy="32" r="32" fill="#FFF3F3"/>
<g id="Group 87">
<g id="Group 85">
<rect id="Rectangle 52" x="17.5845" y="27.019" width="9.02273" height="22.9791" transform="rotate(-18.6543 17.5845 27.019)" fill="#FE5A65" stroke="#1A1D20" stroke-width="1.6"/>
<rect id="Rectangle 53" x="23.9136" y="45.7671" width="9.02273" height="3.19154" transform="rotate(-18.6543 23.9136 45.7671)" fill="white" stroke="#1A1D20" stroke-width="1.6"/>
<path id="Rectangle 54" d="M16.527 23.0543L19.3622 22.737L20.8719 20.3063L22.719 21.514L25.0757 20.1683L26.0965 23.1922L17.5478 26.0782L16.527 23.0543Z" fill="white"/>
<path id="Vector 114" d="M17.38 26.4144L15.8487 21.8786L19.8316 23.2288L20.2918 19.3681L22.9978 22.1599L24.3975 18.9926L25.9287 23.5284" stroke="#1A1D20" stroke-width="1.6" stroke-linejoin="bevel"/>
</g>
<path id="Union" d="M38.8493 28.2023C37.2856 27.1403 36.7475 24.9061 37.6678 22.9411C38.6767 20.7869 41.0563 19.7719 42.9827 20.6742C43.7238 21.0213 44.2899 21.6015 44.6485 22.3069C45.4199 22.1308 46.228 22.1941 46.9691 22.5412C48.8955 23.4434 49.6393 25.9212 48.6304 28.0754C47.7101 30.0404 45.6493 31.0574 43.8323 30.5361L39.0978 40.6451C40.6615 41.7071 41.1996 43.9413 40.2793 45.9063C39.2704 48.0605 36.8908 49.0755 34.9644 48.1732C34.2233 47.8261 33.6572 47.2459 33.2986 46.5405C32.5272 46.7166 31.7191 46.6533 30.978 46.3062C29.0516 45.404 28.3078 42.9262 29.3167 40.772C30.237 38.807 32.2978 37.79 34.1148 38.3113L38.8493 28.2023Z" fill="white" stroke="#1A1D20" stroke-width="1.6"/>
<path id="Vector 32" d="M46.9236 22.5109C45.1884 21.4697 41.1721 23.0892 41.8033 25.3161C42.0627 26.2311 42.8518 26.5463 43.6703 26.0618" stroke="#1A1D20" stroke-width="1.6" stroke-miterlimit="1.41421"/>
<path id="Vector 33" d="M42.0655 20.4285C45.1888 20.7756 45.6633 24.8829 43.6715 26.0619C42.853 26.5464 42.0638 26.2312 41.8045 25.3161" stroke="#1A1D20" stroke-width="1.6" stroke-miterlimit="1.41421"/>
<path id="Vector 34" d="M30.6135 46.1086C32.6956 47.4967 36.7573 45.9123 36.1659 43.6794C35.9229 42.7619 35.1395 42.4333 34.3125 42.9021" stroke="#1A1D20" stroke-width="1.6" stroke-miterlimit="1.41421"/>
<path id="Vector 35" d="M35.8188 48.5378C32.6958 47.4967 32.3022 44.0444 34.3138 42.9028C35.1404 42.4336 35.9233 42.762 36.1658 43.6795" stroke="#1A1D20" stroke-width="1.6" stroke-miterlimit="1.41421"/>
</g>
</g>
</svg>
