<svg width="150" height="150" viewBox="0 0 150 150" fill="none" xmlns="http://www.w3.org/2000/svg">
<g id="&#225;&#132;&#134;&#225;&#133;&#174;&#225;&#132;&#140;&#225;&#133;&#166;-11 01 &#225;&#132;&#139;&#225;&#133;&#161;&#225;&#132;&#144;&#225;&#133;&#179;&#225;&#132;&#135;&#225;&#133;&#169;&#225;&#132;&#131;&#225;&#133;&#179; 1 1">
<g id="&#235;&#160;&#136;&#236;&#157;&#180;&#236;&#150;&#180;_2">
<path id="Vector" d="M92.8502 52.1499C88.7102 50.7149 84.4652 49.2149 81.1452 46.3599C77.8252 43.5049 75.6002 38.9299 76.7602 34.7099C77.4102 32.3399 79.0152 30.3749 80.3752 28.3299C81.0752 27.2799 81.7402 26.0349 81.4102 24.8199C80.8752 22.8399 77.9502 22.4749 76.3152 23.7099C74.6752 24.9449 74.0252 27.0599 73.4702 29.0349" stroke="#E7E9ED" stroke-width="1.5" stroke-miterlimit="10" stroke-linecap="round" stroke-linejoin="round"/>
<path id="Vector_2" d="M68.1799 28.7849C66.2999 33.7249 68.2199 39.8349 72.5849 42.8099" stroke="#E7E9ED" stroke-width="1.5" stroke-miterlimit="10" stroke-linecap="round" stroke-linejoin="round"/>
<path id="Vector_3" d="M65.985 42.7146C66.035 44.7596 66.965 46.7696 68.485 48.1396C70.01 49.5096 72.105 50.2146 74.145 50.0496" stroke="#E7E9ED" stroke-width="1.5" stroke-miterlimit="10" stroke-linecap="round" stroke-linejoin="round"/>
<path id="Vector_4" d="M70.78 50.6848C64.24 49.5648 57.73 53.0948 52.88 57.6198C48.03 62.1448 44.255 67.7348 39.35 72.1998C34.56 76.5598 28.73 79.7748 22.49 81.5048C19.83 82.2398 16.95 82.7048 14.335 81.8148C13.24 81.4448 12.17 80.8348 11.015 80.9148C8.96999 81.0548 7.65999 83.4298 7.97499 85.4548C8.28999 87.4798 9.74999 89.1298 11.29 90.4798" stroke="#E7E9ED" stroke-width="1.5" stroke-miterlimit="10" stroke-linecap="round" stroke-linejoin="round"/>
<path id="Vector_5" d="M10.49 99.2498C14.87 100.48 19.75 99.8248 23.655 97.4848C27.56 95.1448 30.425 91.1398 31.4 86.6948" stroke="#E7E9ED" stroke-width="1.5" stroke-miterlimit="10" stroke-linecap="round" stroke-linejoin="round"/>
<path id="Vector_6" d="M30.86 97.635C33.295 95.965 35.765 94.26 37.605 91.955C39.445 89.645 40.59 86.6 39.95 83.72" stroke="#E7E9ED" stroke-width="1.5" stroke-miterlimit="10" stroke-linecap="round" stroke-linejoin="round"/>
<path id="Vector_7" d="M42.7852 90.4801C45.0502 88.5151 46.6552 85.8101 47.2952 82.8801" stroke="#E7E9ED" stroke-width="1.5" stroke-miterlimit="10" stroke-linecap="round" stroke-linejoin="round"/>
<path id="Vector_8" d="M52.5902 66.5649C50.8002 69.7849 48.9902 73.0549 48.1352 76.6349C47.2802 80.2149 47.4952 84.2149 49.5402 87.2799C51.4502 90.1399 54.6752 91.8299 57.8802 93.0849C72.1052 98.6449 88.7502 97.6299 102.195 90.3799C105.265 88.7249 108.55 85.9949 108.08 82.5399" stroke="#E7E9ED" stroke-width="1.5" stroke-miterlimit="10" stroke-linecap="round" stroke-linejoin="round"/>
<path id="Vector_9" d="M93.36 52.155C101.79 54.15 108.12 60.905 114.075 67.2C120.03 73.495 126.795 79.985 135.38 81.16C136.985 81.38 138.67 81.42 140.1 82.185C141.53 82.95 142.57 84.77 141.83 86.21C141.16 87.51 139.485 87.835 138.035 88.015" stroke="#E7E9ED" stroke-width="1.5" stroke-miterlimit="10" stroke-linecap="round" stroke-linejoin="round"/>
<path id="Vector_10" d="M105.605 73.8098C106.095 80.6298 110.16 87.0948 116.09 90.4898" stroke="#E7E9ED" stroke-width="1.5" stroke-miterlimit="10" stroke-linecap="round" stroke-linejoin="round"/>
<path id="Vector_11" d="M117.035 80.825C118.26 83.685 119.505 86.585 121.455 89.005C123.405 91.425 126.19 93.35 129.295 93.565" stroke="#E7E9ED" stroke-width="1.5" stroke-miterlimit="10" stroke-linecap="round" stroke-linejoin="round"/>
<path id="Vector_12" d="M96.4899 66.6299C95.5349 71.0249 97.3099 75.8999 100.87 78.6499" stroke="#E7E9ED" stroke-width="1.5" stroke-miterlimit="10" stroke-linecap="round" stroke-linejoin="round"/>
<path id="Vector_13" d="M89.4452 95.8899C93.9152 103.965 95.4602 114.91 94.2702 124.505C93.8802 127.665 91.4152 130.145 88.2602 130.58C82.5502 131.36 76.2202 131.165 70.5852 130.81C69.0752 130.715 67.8752 129.525 67.7352 128.015C67.4152 124.625 67.7802 119.435 69.6502 118.32C71.2552 117.365 79.1602 120.66 80.8852 120.81" stroke="#E7E9ED" stroke-width="1.5" stroke-miterlimit="10" stroke-linecap="round" stroke-linejoin="round"/>
<path id="Vector_14" d="M66.6251 102.79C64.7251 107.965 63.2801 113.72 63.4301 117.375" stroke="#E7E9ED" stroke-width="1.5" stroke-miterlimit="10" stroke-linecap="round" stroke-linejoin="round"/>
<path id="Vector_15" d="M65.9849 119.025C62.2499 118.01 59.8249 116.825 58.7099 116.615C57.5949 116.405 56.4449 117.035 55.7649 117.94C53.2849 121.22 54.4449 128.395 55.3699 129.255C57.7049 131.425 62.4799 130.93 69.6499 130.595" stroke="#E7E9ED" stroke-width="1.5" stroke-miterlimit="10" stroke-linecap="round" stroke-linejoin="round"/>
<path id="Vector_16" d="M95.4701 120.59C104.585 116.15 111.57 107.55 114.045 97.7149C114.255 96.8849 114.485 95.9649 115.2 95.4949C116.425 94.6799 118.16 95.9149 118.4 97.3649C118.64 98.8149 117.91 100.23 117.21 101.515" stroke="#E7E9ED" stroke-width="1.5" stroke-miterlimit="10" stroke-linecap="round" stroke-linejoin="round"/>
<path id="Vector_17" d="M109.795 112.26C113.85 111.11 118.175 109.785 120.785 106.475C121.4 105.695 121.92 104.695 121.655 103.735" stroke="#E7E9ED" stroke-width="1.5" stroke-miterlimit="10" stroke-linecap="round" stroke-linejoin="round"/>
<path id="Vector_18" d="M108.165 117.31C109.68 117.69 111.225 118.07 112.785 117.97C114.345 117.87 115.95 117.205 116.8 115.895" stroke="#E7E9ED" stroke-width="1.5" stroke-miterlimit="10" stroke-linecap="round" stroke-linejoin="round"/>
<path id="Vector_19" d="M94.5952 123.825C98.5852 124.25 102.7 123.335 106.14 121.27" stroke="#E7E9ED" stroke-width="1.5" stroke-miterlimit="10" stroke-linecap="round" stroke-linejoin="round"/>
<path id="Vector_20" d="M66.5999 102.73C64.7999 101.58 62.7249 100.955 60.7149 100.23C58.7049 99.5049 56.6799 98.6299 55.1799 97.1049C53.6799 95.5799 52.8049 93.2749 53.5099 91.2549" stroke="#E7E9ED" stroke-width="1.5" stroke-miterlimit="10" stroke-linecap="round" stroke-linejoin="round"/>
<path id="Vector_21" d="M66.9401 107.5C67.6151 108.09 68.5201 108.91 69.1951 109.5" stroke="#CFD3D8" stroke-width="3" stroke-miterlimit="10" stroke-linecap="round" stroke-linejoin="round"/>
<path id="Vector_22" d="M82.7649 101.925C78.8749 104.48 74.9849 107.04 71.0949 109.595C70.7249 109.835 70.3499 110.085 70.0849 110.44C69.2899 111.485 69.7349 112.975 70.2049 114.2C70.6199 115.27 71.0999 116.425 72.0999 116.985C72.8699 117.42 73.8049 117.41 74.6849 117.345C79.2349 117.005 83.6799 115.4 87.3949 112.745" stroke="#E7E9ED" stroke-width="1.5" stroke-miterlimit="10" stroke-linecap="round" stroke-linejoin="round"/>
<path id="Vector_23" d="M72.9349 82.23C72.5549 82.025 72.2349 81.715 72.0099 81.345C72.6849 81.175 73.4099 81.185 74.0749 81.385C73.9149 81.815 73.5649 82.165 72.9349 82.23Z" stroke="#E7E9ED" stroke-width="1.5" stroke-miterlimit="10" stroke-linecap="round" stroke-linejoin="round"/>
<path id="Vector_24" d="M69.5798 85.26C70.3548 85.365 71.1698 85.165 71.7998 84.705C72.4298 84.245 72.8848 83.54 73.0248 82.77C73.0648 83.635 73.4298 84.48 74.0348 85.095C74.6398 85.71 75.4748 86.1 76.3348 86.155" stroke="#E7E9ED" stroke-width="1.5" stroke-miterlimit="10" stroke-linecap="round" stroke-linejoin="round"/>
<path id="Vector_25" d="M69.8501 76.0249C69.4551 76.2649 69.0601 76.4999 68.6651 76.7399C68.5051 76.8349 68.3201 76.9899 68.3701 77.1749C68.4101 77.3099 68.5751 77.3699 68.7101 77.3449C68.8451 77.3199 68.9601 77.2299 69.0701 77.1399C69.3601 76.9049 69.6551 76.6649 69.9451 76.4299C70.0201 76.3699 70.1001 76.2899 70.0901 76.1949C70.0801 76.0799 69.9301 76.0199 69.8201 76.0549C69.7151 76.0849 69.6351 76.1799 69.8501 76.0249Z" stroke="#E7E9ED" stroke-width="1.5" stroke-miterlimit="10" stroke-linecap="round" stroke-linejoin="round"/>
<path id="Vector_26" d="M76.7999 75.96C77.0299 76.495 77.3799 76.98 77.8099 77.375C77.9499 77.505 78.1799 77.62 78.3099 77.485C78.4099 77.385 78.3699 77.215 78.3099 77.085C78.0399 76.5 77.4999 76.05 76.7999 75.96Z" stroke="#E7E9ED" stroke-width="1.5" stroke-miterlimit="10" stroke-linecap="round" stroke-linejoin="round"/>
</g>
<g id="&#235;&#160;&#136;&#236;&#157;&#180;&#236;&#150;&#180;_3">
<path id="Vector_27" d="M57.0251 88.2549C61.1673 88.2549 64.5251 85.8484 64.5251 82.8799C64.5251 79.9114 61.1673 77.5049 57.0251 77.5049C52.883 77.5049 49.5251 79.9114 49.5251 82.8799C49.5251 85.8484 52.883 88.2549 57.0251 88.2549Z" fill="#F3F4F7"/>
<path id="Vector_28" d="M90.4053 90.68C95.2378 90.68 99.1553 87.8997 99.1553 84.47C99.1553 81.0403 95.2378 78.26 90.4053 78.26C85.5728 78.26 81.6553 81.0403 81.6553 84.47C81.6553 87.8997 85.5728 90.68 90.4053 90.68Z" fill="#F3F4F7"/>
<path id="Vector_29" d="M67.0001 96.2998C66.7551 99.1898 69.2251 101.915 72.0951 102.335C74.9651 102.755 77.9151 101.135 79.4751 98.6898C79.2351 99.3648 79.6151 100.15 80.2151 100.545C80.8151 100.94 81.5751 101.01 82.2901 100.94C83.1151 100.86 83.9451 100.59 84.5401 100.015C85.1351 99.4398 85.4301 98.5148 85.1101 97.7498C84.7651 96.9298 83.8201 96.4998 82.9301 96.4648C82.0401 96.4348 81.1751 96.7148 80.3101 96.9298C75.8251 98.0498 71.1001 97.3548 67.0001 96.2998Z" fill="#F3F4F7"/>
<path id="Vector_30" d="M34.3601 20.1501C34.3601 20.1501 17.6401 41.9051 27.7551 50.1151C30.9851 52.7351 36.3201 52.9451 39.8151 50.0601C48.8551 42.6051 34.3601 20.1501 34.3601 20.1501Z" fill="#F3F4F7"/>
</g>
<path id="Ellipse 28" d="M66.0206 107.38C65.5049 107.97 64.6463 108.314 63.517 108.23C62.3872 108.146 61.0866 107.627 59.9397 106.626C58.7928 105.624 58.1037 104.405 57.8682 103.297C57.6328 102.189 57.8585 101.292 58.3742 100.701C58.8899 100.111 59.7485 99.7667 60.8777 99.8509C62.0075 99.9351 63.3081 100.454 64.455 101.456C65.6019 102.457 66.291 103.676 66.5265 104.784C66.7619 105.892 66.5363 106.789 66.0206 107.38Z" stroke="#CFD3D8" stroke-width="3"/>
</g>
</svg>
