<svg width="37" height="36" viewBox="0 0 37 36" fill="none" xmlns="http://www.w3.org/2000/svg">
<g id="Search" clip-path="url(#clip0_487_397)">
<path id="Vector" d="M23.75 21H22.565L22.145 20.595C23.615 18.885 24.5 16.665 24.5 14.25C24.5 8.865 20.135 4.5 14.75 4.5C9.365 4.5 5 8.865 5 14.25C5 19.635 9.365 24 14.75 24C17.165 24 19.385 23.115 21.095 21.645L21.5 22.065V23.25L29 30.735L31.235 28.5L23.75 21ZM14.75 21C11.015 21 8 17.985 8 14.25C8 10.515 11.015 7.5 14.75 7.5C18.485 7.5 21.5 10.515 21.5 14.25C21.5 17.985 18.485 21 14.75 21Z" fill="#CFD3DB"/>
</g>
<defs>
<clipPath id="clip0_487_397">
<rect width="36" height="36" fill="white" transform="translate(0.5)"/>
</clipPath>
</defs>
</svg>
