<svg width="20" height="20" viewBox="0 0 20 20" fill="none" xmlns="http://www.w3.org/2000/svg">
<path d="M5.65139 14.3487C4.73334 13.4306 4.73334 11.9381 5.65139 11.0201L7.28884 9.38262C7.57051 9.10094 7.57051 8.64425 7.28883 8.36257C7.00716 8.08089 6.55046 8.08089 6.26879 8.36257L4.63134 10C3.14958 11.4818 3.14958 13.8869 4.63134 15.3687C6.11309 16.8505 8.51826 16.8505 10 15.3687L11.6375 13.7313C11.9191 13.4496 11.9191 12.9929 11.6375 12.7112C11.3558 12.4295 10.8991 12.4295 10.6174 12.7112L8.97997 14.3487C8.06193 15.2667 6.56943 15.2667 5.65139 14.3487ZM7.85255 12.1475C8.14905 12.444 8.62978 12.444 8.92628 12.1475L12.1475 8.92628C12.444 8.62978 12.444 8.14905 12.1475 7.85255C11.851 7.55604 11.3703 7.55604 11.0738 7.85255L7.85255 11.0738C7.55604 11.3703 7.55604 11.851 7.85255 12.1475ZM10 4.63134L8.36257 6.26879C8.08089 6.55046 8.08089 7.00716 8.36257 7.28883C8.64425 7.57051 9.10094 7.57051 9.38262 7.28883L11.0201 5.65139C11.9381 4.73334 13.4306 4.73334 14.3487 5.65139C15.2667 6.56943 15.2667 8.06193 14.3487 8.97997L12.7112 10.6174C12.4295 10.8991 12.4295 11.3558 12.7112 11.6375C12.9929 11.9191 13.4496 11.9191 13.7313 11.6375L15.3687 10C16.8505 8.51826 16.8505 6.11309 15.3687 4.63134C13.8869 3.14958 11.4818 3.14958 10 4.63134Z" fill="white"/>
</svg>
