<svg width="32" height="32" viewBox="0 0 32 32" fill="none" xmlns="http://www.w3.org/2000/svg">
<path d="M8.74909 21.152C7.87158 23.4914 8.90565 26.3057 12.3509 26.6149C14.9922 26.8616 18.5766 23.155 17.1533 21.152C16.5684 20.3289 15.5771 20.3289 14.9922 21.152C13.5689 23.155 17.1533 26.7557 19.7946 26.6149C23.2399 26.3057 24.2739 23.4914 23.3964 21.152C22.4946 18.7477 18.6919 16.0774 16.9353 14.944C16.3862 14.5897 15.6925 14.5914 15.1453 14.9485C13.4043 16.0845 9.6497 18.7509 8.74909 21.152Z" stroke="#CFD3DB" stroke-width="1.6" stroke-linecap="round"/>
<path d="M16.0509 6.17348C16.1879 6.17957 16.4884 6.28149 16.8964 6.58869C17.2816 6.8787 17.6798 7.29035 18.006 7.7629C18.698 8.76544 18.8806 9.73461 18.5113 10.3743C18.0882 11.1072 17.1523 11.5559 16.0865 11.5559C15.0207 11.5559 14.0847 11.1072 13.6616 10.3743C13.2911 9.7326 13.4764 8.72891 14.1702 7.70818C14.4967 7.22778 14.8927 6.81624 15.2709 6.53664C15.6762 6.23697 15.95 6.16899 16.0509 6.17348Z" stroke="#CFD3DB" stroke-width="1.6"/>
<path d="M6.48293 10.7193C6.59678 10.6429 6.89918 10.5467 7.40989 10.5519C7.89202 10.5569 8.45679 10.652 8.99971 10.8389C10.1515 11.2355 10.8735 11.9073 10.9557 12.6413C11.0499 13.4824 10.5626 14.3988 9.70464 15.0311C8.84665 15.6634 7.82703 15.8574 7.05158 15.5185C6.37268 15.2217 5.92635 14.3038 5.87934 13.0705C5.85721 12.49 5.93181 11.9238 6.0704 11.4744C6.21895 10.9927 6.39899 10.7755 6.48293 10.7193Z" stroke="#CFD3DB" stroke-width="1.6"/>
<path d="M25.5171 10.7193C25.4032 10.6429 25.1008 10.5467 24.5901 10.5519C24.108 10.5569 23.5432 10.652 23.0003 10.8389C21.8485 11.2355 21.1265 11.9073 21.0443 12.6413C20.9501 13.4824 21.4374 14.3988 22.2954 15.0311C23.1533 15.6634 24.173 15.8574 24.9484 15.5185C25.6273 15.2217 26.0736 14.3038 26.1207 13.0705C26.1428 12.49 26.0682 11.9238 25.9296 11.4744C25.7811 10.9927 25.601 10.7755 25.5171 10.7193Z" stroke="#CFD3DB" stroke-width="1.6"/>
</svg>
