<svg width="26" height="27" viewBox="0 0 26 27" fill="none" xmlns="http://www.w3.org/2000/svg">
<g id="Group 31" filter="url(#filter0_d_446_439)">
<path id="Vector 27" d="M5.74903 17.152C4.87152 19.4914 5.90559 22.3057 9.35083 22.6149C11.9922 22.8616 15.5766 19.155 14.1532 17.152C13.5684 16.3289 12.577 16.3289 11.9922 17.152C10.5688 19.155 14.1532 22.7558 16.7946 22.6149C20.2398 22.3057 21.2739 19.4914 20.3964 17.152C19.4946 14.7478 15.6918 12.0775 13.9353 10.944C13.3862 10.5897 12.6925 10.5914 12.1452 10.9485C10.4042 12.0846 6.64964 14.751 5.74903 17.152Z" stroke="white" stroke-width="1.6" stroke-linecap="round"/>
<path id="Polygon 1" d="M13.0509 2.17351C13.1878 2.1796 13.4884 2.28152 13.8964 2.58872C14.2816 2.87873 14.6798 3.29038 15.0059 3.76293C15.6979 4.76547 15.8806 5.73464 15.5113 6.3743C15.0881 7.10722 14.1522 7.55592 13.0864 7.55592C12.0206 7.55592 11.0847 7.10722 10.6615 6.3743C10.2911 5.73263 10.4763 4.72894 11.1701 3.70821C11.4967 3.22781 11.8926 2.81627 12.2708 2.53667C12.6762 2.237 12.9499 2.16902 13.0509 2.17351Z" stroke="white" stroke-width="1.6"/>
<path id="Polygon 2" d="M3.48293 6.71932C3.59678 6.64299 3.89918 6.54674 4.40989 6.55199C4.89202 6.55694 5.45679 6.6521 5.99971 6.83901C7.15152 7.23555 7.87353 7.90738 7.95571 8.64141C8.04987 9.48245 7.56264 10.3989 6.70464 11.0312C5.84665 11.6635 4.82703 11.8575 4.05158 11.5185C3.37268 11.2217 2.92635 10.3039 2.87934 9.07056C2.85721 8.4901 2.93181 7.92391 3.0704 7.47445C3.21895 6.99273 3.39899 6.77561 3.48293 6.71932Z" stroke="white" stroke-width="1.6"/>
<path id="Polygon 4" d="M22.5171 6.71932C22.4032 6.64299 22.1008 6.54674 21.5901 6.55199C21.108 6.55694 20.5432 6.6521 20.0003 6.83901C18.8485 7.23555 18.1265 7.90738 18.0443 8.64141C17.9501 9.48245 18.4374 10.3989 19.2953 11.0312C20.1533 11.6635 21.173 11.8575 21.9484 11.5185C22.6273 11.2217 23.0736 10.3039 23.1207 9.07056C23.1428 8.4901 23.0682 7.92391 22.9296 7.47445C22.781 6.99273 22.601 6.77561 22.5171 6.71932Z" stroke="white" stroke-width="1.6"/>
</g>
<defs>
<filter id="filter0_d_446_439" x="0.0755005" y="0.373322" width="25.849" height="26.0534" filterUnits="userSpaceOnUse" color-interpolation-filters="sRGB">
<feFlood flood-opacity="0" result="BackgroundImageFix"/>
<feColorMatrix in="SourceAlpha" type="matrix" values="0 0 0 0 0 0 0 0 0 0 0 0 0 0 0 0 0 0 127 0" result="hardAlpha"/>
<feOffset dy="1"/>
<feGaussianBlur stdDeviation="1"/>
<feComposite in2="hardAlpha" operator="out"/>
<feColorMatrix type="matrix" values="0 0 0 0 0 0 0 0 0 0 0 0 0 0 0 0 0 0 0.1 0"/>
<feBlend mode="normal" in2="BackgroundImageFix" result="effect1_dropShadow_446_439"/>
<feBlend mode="normal" in="SourceGraphic" in2="effect1_dropShadow_446_439" result="shape"/>
</filter>
</defs>
</svg>
