<svg width="32" height="32" viewBox="0 0 32 32" fill="none" xmlns="http://www.w3.org/2000/svg">
<g filter="url(#filter0_d_356_1555)">
<path d="M12.3509 26.615C8.90565 26.3058 7.87158 23.4915 8.74909 21.1521C9.6497 18.7511 13.4043 16.0846 15.1453 14.9486C15.6925 14.5915 16.3862 14.5898 16.9353 14.9441C18.6919 16.0775 22.4946 18.7479 23.3964 21.1521C24.2739 23.4915 23.2399 26.3058 19.7946 26.615C18.5654 26.6806 17.1318 25.9357 16.0939 24.9187C15.0529 25.968 13.5969 26.7314 12.3509 26.615Z" fill="#FE5A65" stroke="#FE5A65" stroke-width="1.6" stroke-linecap="round"/>
<path d="M16.0509 6.1736C16.1879 6.17969 16.4884 6.28161 16.8964 6.58882C17.2816 6.87882 17.6798 7.29048 18.006 7.76302C18.698 8.76556 18.8806 9.73473 18.5113 10.3744C18.0882 11.1073 17.1523 11.556 16.0865 11.556C15.0207 11.556 14.0847 11.1073 13.6616 10.3744C13.2911 9.73272 13.4764 8.72903 14.1702 7.7083C14.4967 7.2279 14.8927 6.81636 15.2709 6.53676C15.6762 6.23709 15.95 6.16911 16.0509 6.1736Z" fill="#FE5A65" stroke="#FE5A65" stroke-width="1.6"/>
<path d="M6.48293 10.7194C6.59678 10.643 6.89918 10.5468 7.4099 10.5521C7.89202 10.557 8.4568 10.6522 8.99971 10.8391C10.1515 11.2356 10.8735 11.9074 10.9557 12.6415C11.0499 13.4825 10.5626 14.399 9.70464 15.0313C8.84665 15.6635 7.82703 15.8576 7.05158 15.5186C6.37268 15.2218 5.92635 14.3039 5.87934 13.0706C5.85721 12.4902 5.93181 11.924 6.0704 11.4745C6.21895 10.9928 6.39899 10.7757 6.48293 10.7194Z" fill="#FE5A65" stroke="#FE5A65" stroke-width="1.6"/>
<path d="M25.5171 10.7194C25.4032 10.643 25.1008 10.5468 24.5901 10.5521C24.108 10.557 23.5432 10.6522 23.0003 10.8391C21.8485 11.2356 21.1265 11.9074 21.0443 12.6415C20.9501 13.4825 21.4374 14.399 22.2954 15.0313C23.1533 15.6635 24.173 15.8576 24.9484 15.5186C25.6273 15.2218 26.0736 14.3039 26.1207 13.0706C26.1428 12.4902 26.0682 11.924 25.9296 11.4745C25.7811 10.9928 25.601 10.7757 25.5171 10.7194Z" fill="#FE5A65" stroke="#FE5A65" stroke-width="1.6"/>
</g>
<defs>
<filter id="filter0_d_356_1555" x="3.07544" y="4.37341" width="25.8491" height="26.0535" filterUnits="userSpaceOnUse" color-interpolation-filters="sRGB">
<feFlood flood-opacity="0" result="BackgroundImageFix"/>
<feColorMatrix in="SourceAlpha" type="matrix" values="0 0 0 0 0 0 0 0 0 0 0 0 0 0 0 0 0 0 127 0" result="hardAlpha"/>
<feOffset dy="1"/>
<feGaussianBlur stdDeviation="1"/>
<feComposite in2="hardAlpha" operator="out"/>
<feColorMatrix type="matrix" values="0 0 0 0 0 0 0 0 0 0 0 0 0 0 0 0 0 0 0.1 0"/>
<feBlend mode="normal" in2="BackgroundImageFix" result="effect1_dropShadow_356_1555"/>
<feBlend mode="normal" in="SourceGraphic" in2="effect1_dropShadow_356_1555" result="shape"/>
</filter>
</defs>
</svg>
