<svg width="32" height="32" viewBox="0 0 32 32" fill="none" xmlns="http://www.w3.org/2000/svg">
<g filter="url(#filter0_d_446_267)">
<path d="M12.3509 26.615C8.90564 26.3058 7.87157 23.4915 8.74907 21.1521C9.64969 18.7511 13.4043 16.0846 15.1452 14.9486C15.6925 14.5915 16.3862 14.5898 16.9353 14.9441C18.6919 16.0775 22.4946 18.7479 23.3964 21.1521C24.2739 23.4915 23.2399 26.3058 19.7946 26.615C18.5653 26.6806 17.1318 25.9357 16.0939 24.9187C15.0528 25.968 13.5969 26.7314 12.3509 26.615Z" fill="#FE5A65" stroke="#FE5A65" stroke-width="1.6" stroke-linecap="round"/>
<path d="M16.0509 6.17356C16.1879 6.17964 16.4884 6.28156 16.8964 6.58877C17.2816 6.87878 17.6798 7.29043 18.006 7.76298C18.698 8.76552 18.8806 9.73469 18.5113 10.3743C18.0882 11.1073 17.1523 11.556 16.0865 11.556C15.0207 11.556 14.0847 11.1073 13.6616 10.3743C13.2911 9.73268 13.4764 8.72899 14.1702 7.70826C14.4967 7.22786 14.8927 6.81631 15.2709 6.53672C15.6762 6.23705 15.95 6.16907 16.0509 6.17356Z" fill="#FE5A65" stroke="#FE5A65" stroke-width="1.6"/>
<path d="M6.48298 10.7193C6.59683 10.643 6.89923 10.5467 7.40994 10.552C7.89206 10.5569 8.45684 10.6521 8.99975 10.839C10.1516 11.2355 10.8736 11.9074 10.9558 12.6414C11.0499 13.4825 10.5627 14.3989 9.70469 15.0312C8.8467 15.6635 7.82707 15.8575 7.05163 15.5185C6.37273 15.2217 5.9264 14.3039 5.87938 13.0706C5.85726 12.4901 5.93185 11.9239 6.07045 11.4745C6.21899 10.9927 6.39904 10.7756 6.48298 10.7193Z" fill="#FE5A65" stroke="#FE5A65" stroke-width="1.6"/>
<path d="M25.5171 10.7194C25.4033 10.6431 25.1009 10.5468 24.5901 10.5521C24.108 10.557 23.5432 10.6522 23.0003 10.8391C21.8485 11.2356 21.1265 11.9075 21.0443 12.6415C20.9502 13.4825 21.4374 14.399 22.2954 15.0313C23.1534 15.6636 24.173 15.8576 24.9485 15.5186C25.6274 15.2218 26.0737 14.3039 26.1207 13.0706C26.1428 12.4902 26.0682 11.924 25.9296 11.4745C25.7811 10.9928 25.601 10.7757 25.5171 10.7194Z" fill="#FE5A65" stroke="#FE5A65" stroke-width="1.6"/>
</g>
<defs>
<filter id="filter0_d_446_267" x="3.07555" y="4.37337" width="25.849" height="26.0535" filterUnits="userSpaceOnUse" color-interpolation-filters="sRGB">
<feFlood flood-opacity="0" result="BackgroundImageFix"/>
<feColorMatrix in="SourceAlpha" type="matrix" values="0 0 0 0 0 0 0 0 0 0 0 0 0 0 0 0 0 0 127 0" result="hardAlpha"/>
<feOffset dy="1"/>
<feGaussianBlur stdDeviation="1"/>
<feComposite in2="hardAlpha" operator="out"/>
<feColorMatrix type="matrix" values="0 0 0 0 0 0 0 0 0 0 0 0 0 0 0 0 0 0 0.1 0"/>
<feBlend mode="normal" in2="BackgroundImageFix" result="effect1_dropShadow_446_267"/>
<feBlend mode="normal" in="SourceGraphic" in2="effect1_dropShadow_446_267" result="shape"/>
</filter>
</defs>
</svg>
