<svg width="10" height="10" viewBox="0 0 10 10" fill="none" xmlns="http://www.w3.org/2000/svg">
<g id="Group 29">
<path id="Rectangle 36" d="M2.78721 3.6857C2.71127 3.87552 2.52742 4 2.32297 4H2C1.17157 4 0.5 4.67157 0.5 5.5V7.5C0.5 8.32843 1.17157 9 2 9H3H6.38197C6.95012 9 7.46952 8.679 7.72361 8.17082L8.72361 6.17082C9.22228 5.17347 8.49704 4 7.38197 4H6C5.72386 4 5.5 3.77614 5.5 3.5V2.3034C5.5 1.37696 4.3799 0.912997 3.72481 1.56809C3.62522 1.66767 3.54691 1.78644 3.49461 1.91719L2.78721 3.6857Z" stroke="#34BACC"/>
<path id="Vector 69" d="M2 4.75L2 9" stroke="#34BACC" stroke-linecap="round" stroke-linejoin="round"/>
</g>
</svg>
