<svg width="100" height="100" viewBox="0 0 100 100" fill="none" xmlns="http://www.w3.org/2000/svg">
<path d="M42.4128 14.7415C45.7849 8.90081 54.2151 8.90081 57.5872 14.7415L84.3284 61.0585C87.7005 66.8992 83.4854 74.2 76.7412 74.2H23.2588C16.5146 74.2 12.2995 66.8992 15.6716 61.0585L42.4128 14.7415Z" fill="#F9FAFC" stroke="#CFD3DB" stroke-width="1.6"/>
<path d="M47.1443 19.6683C48.4136 17.4699 51.5867 17.4699 52.8559 19.6683L77.696 62.6927C78.9653 64.891 77.3787 67.639 74.8403 67.639H25.16C22.6215 67.639 21.035 64.891 22.3042 62.6927L47.1443 19.6683Z" fill="white" stroke="#CFD3DB" stroke-width="1.6"/>
<path d="M42.4604 54.7787C41.5829 57.1181 42.617 59.9324 46.0622 60.2416C48.7035 60.4883 52.2879 56.7817 50.8646 54.7787C50.2797 53.9556 49.2884 53.9556 48.7035 54.7787C47.2802 56.7817 50.8646 60.3824 53.5059 60.2416C56.9512 59.9324 57.9852 57.1181 57.1077 54.7787C56.2059 52.3744 52.4032 49.7041 50.6466 48.5707C50.0975 48.2164 49.4038 48.2181 48.8566 48.5752C47.1156 49.7112 43.361 52.3776 42.4604 54.7787Z" stroke="#CFD3DB" stroke-width="1.6" stroke-linecap="round"/>
<path d="M49.762 39.8002C49.8989 39.8063 50.1995 39.9082 50.6075 40.2154C50.9927 40.5054 51.3909 40.9171 51.7171 41.3896C52.409 42.3921 52.5917 43.3613 52.2224 44.001C51.7992 44.7339 50.8633 45.1826 49.7975 45.1826C48.7317 45.1826 47.7958 44.7339 47.3727 44.001C47.0022 43.3593 47.1874 42.3556 47.8812 41.3349C48.2078 40.8545 48.6037 40.4429 48.9819 40.1633C49.3873 39.8637 49.661 39.7957 49.762 39.8002Z" stroke="#CFD3DB" stroke-width="1.6"/>
<path d="M40.1942 44.346C40.3081 44.2696 40.6105 44.1734 41.1212 44.1786C41.6033 44.1836 42.1681 44.2787 42.711 44.4657C43.8628 44.8622 44.5848 45.534 44.667 46.2681C44.7612 47.1091 44.2739 48.0255 43.4159 48.6578C42.558 49.2901 41.5383 49.4841 40.7629 49.1452C40.084 48.8484 39.6377 47.9305 39.5906 46.6972C39.5685 46.1168 39.6431 45.5506 39.7817 45.1011C39.9303 44.6194 40.1103 44.4023 40.1942 44.346Z" stroke="#CFD3DB" stroke-width="1.6"/>
<path d="M59.2286 44.346C59.1148 44.2696 58.8124 44.1734 58.3017 44.1786C57.8195 44.1836 57.2548 44.2787 56.7118 44.4657C55.56 44.8622 54.838 45.534 54.7558 46.2681C54.6617 47.1091 55.1489 48.0255 56.0069 48.6578C56.8649 49.2901 57.8845 49.4841 58.66 49.1452C59.3389 48.8484 59.7852 47.9305 59.8322 46.6972C59.8543 46.1168 59.7797 45.5506 59.6411 45.1011C59.4926 44.6194 59.3126 44.4023 59.2286 44.346Z" stroke="#CFD3DB" stroke-width="1.6"/>
</svg>
